<?xml version="1.0" standalone="no"?>
<!DOCTYPE svg PUBLIC "-//W3C//DTD SVG 20010904//EN"
 "http://www.w3.org/TR/2001/REC-SVG-20010904/DTD/svg10.dtd">
<svg version="1.0" xmlns="http://www.w3.org/2000/svg"
 width="474.000000pt" height="500.000000pt" viewBox="0 0 474.000000 500.000000"
 preserveAspectRatio="xMidYMid meet">

<g transform="translate(0.000000,500.000000) scale(0.100000,-0.100000)"
fill="#000000" stroke="none">
<path d="M2275 4514 c-274 -20 -510 -82 -736 -195 -101 -50 -315 -194 -335
-225 -9 -13 -22 -24 -29 -24 -19 0 -27 -30 -13 -49 11 -14 11 -14 -4 -3 -20
16 -51 3 -68 -28 -14 -26 -13 -33 5 -26 8 3 15 1 15 -4 0 -13 -27 -13 -35 0
-10 17 -25 11 -18 -7 4 -11 3 -14 -5 -9 -7 4 -21 -8 -34 -28 -13 -20 -29 -36
-37 -36 -11 0 -11 -3 -1 -15 11 -13 10 -14 -4 -9 -19 7 -21 -6 -3 -26 10 -12
9 -12 -6 -1 -15 12 -20 11 -31 -5 -8 -10 -12 -22 -10 -26 3 -4 -3 -5 -12 -1
-13 5 -16 3 -11 -10 3 -9 2 -17 -3 -17 -6 0 -10 -7 -10 -16 0 -8 -4 -13 -8
-10 -10 6 -82 -103 -139 -211 -91 -171 -160 -380 -189 -576 -31 -199 -21 -485
22 -676 9 -35 12 -71 9 -80 -3 -8 -3 -12 1 -9 9 10 77 -180 77 -217 0 -16 2
-24 5 -16 3 8 29 -35 58 -95 29 -60 50 -113 47 -118 -4 -5 -1 -6 5 -3 6 4 23
-16 40 -47 17 -29 37 -59 44 -67 8 -8 29 -36 48 -63 18 -27 90 -106 159 -175
69 -69 124 -130 122 -136 -1 -5 1 -7 4 -3 13 13 45 -11 39 -30 -4 -12 -3 -13
3 -5 7 10 34 -3 106 -51 53 -35 94 -66 92 -70 -3 -3 -2 -4 1 -2 3 3 54 -20
112 -49 97 -49 176 -80 302 -121 25 -8 104 -26 175 -40 114 -23 156 -26 335
-27 169 0 225 3 320 21 122 23 308 77 384 112 26 11 52 18 58 14 6 -4 8 -3 5
3 -7 11 87 58 111 56 7 -1 11 2 8 5 -9 9 54 43 66 36 7 -4 8 -2 4 4 -3 6 3 16
15 22 17 10 20 9 14 -2 -5 -7 6 0 23 16 17 15 35 25 41 22 6 -4 19 -2 28 4 15
9 14 10 -7 4 -30 -8 -25 -3 55 58 33 26 77 62 98 82 20 20 39 36 41 36 19 0
190 204 266 315 65 96 160 272 160 296 0 5 4 7 10 4 5 -3 7 0 5 8 -7 15 29
100 38 91 3 -3 3 4 0 17 -5 17 -3 20 7 14 8 -5 11 -4 6 3 -3 6 7 62 23 124 48
184 65 328 58 513 -5 140 -36 380 -53 406 -3 5 -14 41 -25 81 -21 75 -85 235
-121 303 -50 92 -161 262 -188 287 -17 15 -30 32 -30 38 0 16 -9 12 -38 -15
-56 -52 -130 -23 -139 56 -4 38 -1 50 20 75 l25 30 -56 49 c-270 238 -555 377
-912 444 -96 18 -314 31 -405 25z m742 -458 c58 -29 63 -52 63 -278 0 -185 -2
-206 -20 -236 -31 -51 -93 -66 -150 -37 -53 27 -60 56 -60 239 0 99 -4 167
-10 171 -5 3 -10 12 -10 18 0 8 3 8 9 -1 5 -9 10 2 13 33 7 55 28 81 80 97 29
8 37 16 33 27 -4 14 -4 14 7 0 7 -9 28 -23 45 -33z m-1227 -1 c16 -9 37 -29
45 -45 13 -25 19 -29 35 -20 10 5 39 10 63 10 60 0 97 -40 97 -106 l0 -44 348
0 c257 0 351 3 360 12 9 9 12 9 12 0 0 -8 17 -12 45 -12 l45 0 0 -63 c0 -43
-6 -75 -20 -102 -40 -78 -14 -172 60 -221 35 -23 47 -26 100 -22 70 5 104 26
138 84 29 50 26 126 -6 171 -17 24 -22 45 -22 92 l0 61 89 0 c130 0 195 -33
244 -125 l22 -40 0 -805 0 -806 -25 -48 c-33 -65 -101 -112 -173 -121 -28 -3
-450 -5 -937 -3 -815 3 -887 4 -916 20 -44 24 -88 70 -110 115 -18 36 -19 75
-22 821 -2 511 1 796 8 821 14 55 49 101 100 136 41 27 53 30 143 33 l97 4 0
-69 c0 -49 -6 -80 -20 -108 -11 -22 -20 -54 -20 -73 0 -39 36 -115 51 -107 5
4 8 1 7 -5 -6 -26 50 -53 110 -53 66 0 104 20 143 75 30 42 32 132 4 174 -12
17 -22 54 -26 89 -4 45 -6 30 -7 -63 -2 -141 -15 -183 -65 -209 -45 -23 -105
-12 -139 27 l-28 30 0 210 c0 115 4 220 10 234 12 32 65 66 103 66 15 0 41 -7
57 -15z m-640 -56 c0 -6 -4 -7 -10 -4 -5 3 -10 11 -10 16 0 6 5 7 10 4 6 -3
10 -11 10 -16z m-19 -16 c13 -16 12 -17 -3 -4 -10 7 -18 15 -18 17 0 8 8 3 21
-13z m1693 -79 c5 -14 4 -15 -9 -4 -17 14 -19 20 -6 20 5 0 12 -7 15 -16z
m-1713 -823 c23 -24 29 -38 29 -74 0 -28 -6 -49 -16 -58 -14 -11 -15 -9 -9 24
10 53 -1 84 -36 103 -57 29 -119 -4 -119 -63 0 -60 60 -94 102 -56 27 24 23
61 -8 75 -22 10 -28 10 -39 -6 -16 -21 -9 -46 12 -46 8 0 12 4 8 9 -3 5 -1 12
4 15 16 10 24 -14 11 -29 -16 -19 -35 -19 -54 1 -50 50 33 115 86 67 47 -42 3
-125 -67 -125 -54 0 -85 33 -85 90 0 35 6 49 29 73 24 24 38 29 76 29 38 0 52
-5 76 -29z m2490 -154 c-6 -8 -7 -18 -3 -22 4 -5 1 -5 -6 -1 -10 6 -10 11 -1
22 6 8 14 14 16 14 3 0 0 -6 -6 -13z m-67 -73 c3 -8 2 -12 -4 -9 -6 3 -10 10
-10 16 0 14 7 11 14 -7z m-2359 -584 c4 -6 -1 -7 -11 -3 -14 5 -16 3 -10 -13
5 -14 4 -16 -5 -7 -12 12 -5 33 11 33 5 0 12 -4 15 -10z m-34 -37 c13 -16 12
-17 -3 -4 -10 7 -18 15 -18 17 0 8 8 3 21 -13z m2629 -32 c36 -25 47 -79 26
-117 -10 -16 -14 -20 -10 -9 27 78 -36 150 -111 125 -64 -21 -71 -107 -12
-140 24 -13 30 -13 55 0 40 23 44 75 6 92 -23 11 -28 10 -46 -12 -17 -21 -18
-25 -3 -39 15 -15 17 -14 31 3 12 17 14 17 14 4 0 -35 -54 -34 -65 1 -15 47
39 84 82 56 30 -20 37 -38 29 -70 -7 -26 -42 -55 -73 -59 -20 -4 -74 21 -85
38 -15 22 -8 83 13 110 22 28 72 47 104 39 11 -2 31 -13 45 -22z m-2767 -86
c-3 -9 -8 -14 -10 -11 -3 3 -2 9 2 15 9 16 15 13 8 -4z m657 -400 l0 -35 -79
0 -79 0 2 -32 2 -33 72 -3 72 -3 0 -34 0 -35 -74 0 -74 0 2 -32 2 -33 80 -5
79 -5 3 -32 3 -33 -125 0 -126 0 0 175 0 175 120 0 120 0 0 -35z m141 -20 c10
-27 28 -85 41 -129 l24 -78 43 131 43 131 45 0 c32 0 44 -4 41 -12 -2 -7 -31
-86 -64 -175 l-59 -163 -51 0 -52 0 -55 158 c-30 86 -58 165 -62 175 -7 16 -2
18 41 15 48 -3 48 -3 65 -53z m519 20 l0 -35 -78 0 -78 0 -1 -35 -1 -35 74 0
74 0 0 -35 0 -35 -75 0 -74 0 1 -35 1 -34 81 -3 81 -3 3 -32 3 -33 -125 0
-126 0 0 175 0 175 120 0 120 0 0 -35z m200 -22 c19 -31 50 -84 67 -117 l33
-61 0 118 0 117 40 0 40 0 0 -175 0 -175 -48 0 -48 0 -74 125 c-40 69 -74 125
-74 125 -1 0 0 -56 2 -125 l3 -125 -40 0 -41 0 0 175 0 175 53 0 52 -1 35 -56z
m520 22 l0 -35 -55 0 -55 0 0 -140 0 -140 -45 0 -45 0 0 140 0 140 -50 0 -50
0 0 35 0 35 150 0 150 0 0 -35z m265 23 c4 -4 3 -19 -3 -35 -6 -19 -15 -27
-28 -26 -10 2 -33 5 -51 7 -18 2 -40 -2 -50 -9 -26 -20 -8 -44 53 -66 66 -25
98 -59 98 -104 0 -75 -77 -123 -177 -111 -71 9 -81 16 -72 56 6 27 10 31 28
25 51 -15 102 -16 121 -2 27 20 14 45 -31 63 -97 37 -123 63 -123 118 0 28 34
74 64 87 23 10 161 8 171 -3z m-1250 -386 c-6 -7 -34 11 -29 19 3 5 11 3 19
-4 7 -6 12 -13 10 -15z m821 -39 c35 -22 50 -82 31 -119 -15 -29 -15 -29 -10
19 5 40 2 52 -16 71 -29 31 -68 38 -109 19 -55 -26 -55 -101 1 -133 24 -13 30
-13 55 0 21 12 27 23 27 49 0 41 -25 62 -52 45 -22 -14 -29 -42 -13 -58 8 -8
15 -6 27 9 l15 20 -4 -20 c-4 -25 -40 -31 -57 -11 -31 38 26 99 69 76 43 -23
50 -67 17 -105 -33 -39 -91 -39 -123 -1 -34 39 -33 99 2 131 40 38 91 41 140
8z m-996 -117 c0 -2 -9 -6 -20 -9 -11 -3 -18 -1 -14 4 5 9 34 13 34 5z"/>
<path d="M1895 3970 c-34 -13 -46 -36 -43 -77 2 -32 7 -39 28 -42 24 -3 25 -3
7 17 -20 21 -16 59 7 74 43 28 113 -21 101 -70 -4 -15 -2 -21 5 -17 5 3 10 22
10 41 0 61 -58 98 -115 74z"/>
<path d="M1913 3923 c-15 -5 -18 -53 -3 -53 5 0 13 7 18 16 7 12 11 13 16 5 4
-7 2 -19 -5 -28 -11 -13 -11 -15 6 -12 23 5 32 43 15 65 -13 14 -25 16 -47 7z"/>
<path d="M1997 3272 l-587 -2 2 -548 3 -549 28 -40 c15 -22 46 -50 70 -64 39
-22 55 -24 197 -27 l155 -4 -22 24 c-16 17 -23 37 -23 64 0 48 19 77 60 94
l30 12 0 100 0 99 113 -3 112 -3 3 -112 3 -113 -73 -2 c-40 0 -96 0 -124 1
-43 2 -55 -1 -73 -20 -27 -29 -28 -80 -1 -104 36 -32 100 -16 100 25 0 36 -12
50 -41 50 -24 0 -29 -4 -29 -24 0 -32 16 -42 29 -19 11 21 26 11 18 -12 -9
-22 -54 -19 -67 5 -23 42 17 88 66 76 15 -4 31 -20 41 -41 16 -34 16 -36 -5
-65 l-23 -30 573 0 c358 1 587 4 611 11 21 5 55 26 77 45 73 66 70 40 70 641
l0 538 -352 0 c-194 0 -617 -1 -941 -3z m163 -26 c0 -3 -4 -8 -10 -11 -5 -3
-10 -1 -10 4 0 6 5 11 10 11 6 0 10 -2 10 -4z m-62 -84 c-25 -5 -41 17 -26 36
10 11 15 9 29 -10 18 -22 17 -23 -3 -26z m-37 -2 c10 -6 19 -16 19 -22 0 -7
-5 -6 -15 2 -13 11 -14 10 -9 -4 7 -19 -11 -22 -20 -3 -3 6 -4 3 -1 -8 5 -23
-10 -53 -22 -42 -4 5 -1 12 6 16 9 6 10 11 3 15 -6 3 -10 15 -9 26 1 10 5 16
9 14 4 -3 8 0 8 5 0 14 6 14 31 1z m-241 -10 c0 -5 -2 -10 -4 -10 -3 0 -8 5
-11 10 -3 6 -1 10 4 10 6 0 11 -4 11 -10z m180 -16 c13 -34 13 -39 -5 -24 -8
7 -21 10 -28 7 -10 -4 -13 2 -12 16 3 28 2 27 20 27 9 0 20 -12 25 -26z m868
-34 c27 -17 50 -20 142 -20 l110 0 0 -115 0 -115 -115 0 -115 0 -1 48 c0 26 0
70 1 97 1 38 -3 55 -17 66 -23 20 -61 30 -69 18 -3 -5 1 -9 9 -9 8 0 26 -9 41
-21 48 -38 24 -129 -34 -129 -16 0 -20 -7 -20 -35 l0 -35 -115 0 -115 0 0 105
c0 58 -1 108 -2 113 -2 4 32 8 75 10 56 2 87 8 110 22 41 25 73 25 115 0z
m-868 -15 c19 -23 -1 -40 -29 -26 -22 12 -28 2 -10 -16 6 -6 8 -17 4 -23 -5
-8 -11 -4 -19 12 -10 18 -10 27 2 46 17 26 34 28 52 7z m471 -9 c2 -2 3 -54 1
-115 l-3 -111 -115 0 -114 0 0 115 0 115 113 0 c63 0 116 -2 118 -4z m-536
-56 c3 -5 2 -17 -3 -26 -6 -11 -11 -13 -16 -5 -4 6 -2 11 5 11 7 0 10 2 7 5
-3 3 -13 2 -22 -1 -14 -5 -15 -9 -5 -15 8 -4 10 -11 6 -15 -3 -4 -13 -1 -22 6
-11 9 -12 17 -4 31 10 20 44 26 54 9z m-50 -50 c13 -21 -5 -47 -29 -43 -13 3
-26 0 -30 -5 -4 -6 3 -8 16 -4 21 5 22 4 9 -11 -17 -21 -37 -22 -45 -1 -8 20
1 34 20 34 8 0 14 9 14 20 0 21 33 29 45 10z m-79 -98 c-9 -8 -26 10 -26 26 1
15 2 15 15 -2 8 -11 13 -21 11 -24z m-23 -12 c3 -11 1 -20 -4 -20 -5 0 -12 -1
-16 -2 -8 -4 -23 49 -15 56 8 9 29 -12 35 -34z m27 -225 l0 -115 -115 0 -115
0 0 115 0 115 115 0 115 0 0 -115z m328 3 l-3 -113 -112 -3 -113 -3 0 116 0
115 115 0 116 0 -3 -112z m332 -3 l0 -115 -115 0 -115 0 0 115 0 115 115 0
115 0 0 -115z m328 3 l-3 -113 -112 -3 -113 -3 0 116 0 115 115 0 116 0 -3
-112z m322 -3 l0 -115 -115 0 -115 0 0 115 0 115 115 0 115 0 0 -115z m-1310
-320 l0 -115 -115 0 -115 0 0 115 0 115 115 0 115 0 0 -115z m661 111 c2 -2 3
-54 1 -115 l-3 -111 -115 0 -114 0 0 108 c0 60 3 112 7 115 7 7 217 10 224 3z
m327 -113 l3 -113 -115 0 -115 0 -3 110 c-2 67 1 112 7 114 6 3 57 4 115 3
l105 -2 3 -112z m182 0 c0 -5 -5 -15 -10 -23 -8 -12 -10 -11 -10 8 0 12 5 22
10 22 6 0 10 -3 10 -7z m-29 -50 c11 -15 11 -16 -1 -5 -24 21 -34 13 -14 -10
10 -13 12 -17 4 -10 -20 17 -35 15 -20 -3 8 -9 9 -15 2 -15 -18 0 -24 18 -12
40 13 25 24 25 41 3z m-50 -50 c13 -16 12 -17 -3 -4 -17 13 -22 21 -14 21 2 0
10 -8 17 -17z m-37 -18 c-4 -8 -2 -15 4 -15 6 0 13 6 15 13 4 9 6 9 6 0 1 -19
-18 -26 -34 -13 -15 12 -12 30 5 30 5 0 7 -7 4 -15z m-24 -26 c0 -5 -4 -9 -10
-9 -5 0 -10 7 -10 16 0 8 5 12 10 9 6 -3 10 -10 10 -16z m-810 -13 c10 -28 -5
-96 -21 -96 -6 0 -7 9 -3 23 10 29 7 67 -7 83 -9 11 -8 14 5 14 9 0 21 -11 26
-24z m810 -26 c-8 -6 -20 -8 -27 -5 -8 2 -10 -2 -6 -13 6 -15 5 -16 -12 -2
-17 14 -17 13 -10 -9 5 -16 4 -21 -4 -17 -18 12 -12 44 9 51 11 3 24 4 29 0 5
-3 13 0 16 6 4 5 10 8 13 4 4 -3 0 -10 -8 -15z m-75 -50 c3 -6 -1 -7 -9 -4 -9
3 -16 2 -16 -4 0 -6 6 -13 13 -15 9 -4 9 -6 0 -6 -15 -1 -26 16 -18 29 8 13
22 13 30 0z"/>
<path d="M2801 3008 c1 -18 3 -25 6 -15 5 19 18 22 28 7 3 -5 -4 -19 -15 -30
-25 -25 -21 -36 8 -21 26 14 33 45 15 70 -22 32 -43 27 -42 -11z"/>
<path d="M1761 2854 c0 -11 3 -14 6 -6 3 7 2 16 -1 19 -3 4 -6 -2 -5 -13z"/>
<path d="M3643 3963 c-19 -7 -27 -70 -13 -104 12 -28 16 -30 58 -27 55 4 73
24 52 62 -16 31 -46 42 -66 25 -13 -10 -13 -15 1 -35 9 -13 11 -24 6 -24 -9 0
-31 31 -31 43 0 2 9 14 20 27 27 31 13 50 -27 33z m68 -96 c-10 -9 -11 -8 -5
6 3 10 9 15 12 12 3 -3 0 -11 -7 -18z"/>
<path d="M4192 3020 c0 -14 2 -19 5 -12 2 6 2 18 0 25 -3 6 -5 1 -5 -13z"/>
<path d="M4251 2424 c0 -11 3 -14 6 -6 3 7 2 16 -1 19 -3 4 -6 -2 -5 -13z"/>
<path d="M4191 2344 c0 -11 3 -14 6 -6 3 7 2 16 -1 19 -3 4 -6 -2 -5 -13z"/>
<path d="M601 2084 c0 -11 3 -14 6 -6 3 7 2 16 -1 19 -3 4 -6 -2 -5 -13z"/>
<path d="M3846 1584 c-5 -14 -4 -15 9 -4 17 14 19 20 6 20 -5 0 -12 -7 -15
-16z"/>
<path d="M3871 1567 c-13 -21 -12 -21 5 -5 10 10 16 20 13 22 -3 3 -11 -5 -18
-17z"/>
<path d="M3654 1353 c4 -26 22 -34 22 -10 0 13 -5 24 -12 24 -6 0 -11 -6 -10
-14z"/>
<path d="M1157 1249 c7 -7 15 -10 18 -7 3 3 -2 9 -12 12 -14 6 -15 5 -6 -5z"/>
<path d="M1370 1126 c0 -2 7 -7 16 -10 8 -3 12 -2 9 4 -6 10 -25 14 -25 6z"/>
<path d="M3320 1090 c-9 -6 -10 -10 -3 -10 6 0 15 5 18 10 8 12 4 12 -15 0z"/>
<path d="M3239 1023 c-13 -16 -12 -17 4 -4 16 13 21 21 13 21 -2 0 -10 -8 -17
-17z"/>
<path d="M2698 863 c7 -3 16 -2 19 1 4 3 -2 6 -13 5 -11 0 -14 -3 -6 -6z"/>
<path d="M1668 750 c-113 -29 -122 -68 -23 -91 28 -6 57 -15 65 -19 8 -4 25
-3 38 1 12 5 22 4 22 -1 0 -8 30 -13 150 -25 92 -10 730 -13 855 -4 186 12
195 13 195 22 0 4 12 7 28 6 47 -1 79 7 116 30 28 18 35 19 30 7 -9 -24 10
-19 37 10 l24 26 -22 -6 c-16 -5 -23 -3 -23 6 0 8 -32 22 -82 36 l-83 22 -84
-20 c-228 -55 -305 -64 -546 -64 -243 0 -307 7 -520 59 -55 14 -102 24 -105
24 -3 -1 -35 -9 -72 -19z"/>
<path d="M0 130 l0 -130 2370 0 2370 0 0 130 0 130 -2370 0 -2370 0 0 -130z
m499 46 c9 -10 8 -16 -4 -26 -8 -7 -13 -24 -11 -41 2 -16 -1 -29 -5 -29 -5 0
-9 13 -9 28 0 15 -5 33 -11 39 -14 14 -5 43 14 43 8 0 20 -6 26 -14z m3347
-15 c9 7 16 4 27 -11 l15 -22 7 22 c5 15 10 19 18 11 7 -7 16 -7 30 0 14 8 18
8 12 0 -4 -7 -2 -17 4 -24 13 -17 -3 -42 -20 -31 -20 12 -69 15 -69 4 0 -5 -7
-7 -15 -4 -8 4 -15 13 -15 21 0 8 -4 12 -10 8 -5 -3 -6 -13 -3 -21 4 -12 -1
-14 -23 -12 -16 2 -32 7 -36 12 -4 6 -12 5 -20 -2 -11 -9 -17 -9 -26 0 -9 9
-15 9 -24 0 -8 -8 -15 -8 -24 -1 -8 7 -14 7 -19 -1 -13 -22 -35 -10 -35 19 0
28 2 30 40 29 30 0 40 -4 40 -17 1 -14 2 -14 11 2 13 22 29 22 29 0 0 -15 2
-15 19 1 11 10 24 15 30 12 5 -4 13 -1 16 5 5 8 10 8 18 0 7 -7 14 -7 23 0z
m514 -12 c0 -11 38 -3 56 12 11 9 14 6 14 -20 0 -30 -9 -37 -47 -32 -6 1 -14
-3 -18 -9 -3 -5 -11 -10 -16 -10 -6 0 -7 5 -4 10 3 6 2 10 -4 10 -5 0 -12 10
-14 23 -4 20 -4 19 -6 -4 -1 -24 -5 -26 -36 -23 -19 1 -39 5 -45 9 -5 3 -10 0
-10 -7 0 -9 -3 -9 -10 2 -7 11 -10 11 -10 2 0 -7 -4 -10 -10 -7 -13 8 -13 55
-1 55 6 0 13 -5 17 -11 5 -8 9 -8 14 1 4 7 13 9 19 6 6 -4 8 -13 4 -19 -4 -7
1 -6 10 2 10 8 20 11 23 8 4 -3 13 0 20 8 14 13 54 10 54 -6z m-4252 -35 c-2
-22 -9 -30 -26 -32 -20 -3 -23 0 -20 25 2 16 8 27 16 26 6 -2 12 5 12 14 0 12
3 14 11 6 6 -6 9 -23 7 -39z m3389 -1 c-3 -10 -5 -2 -5 17 0 19 2 27 5 18 2
-10 2 -26 0 -35z m51 20 c-2 -17 -10 -29 -20 -31 -14 -3 -18 3 -18 27 0 25 4
31 21 31 16 0 20 -5 17 -27z m62 3 c0 -36 -17 -41 -22 -6 -3 20 0 30 9 30 7 0
13 -11 13 -24z m430 14 c0 -5 -8 -10 -17 -11 -15 0 -15 -2 2 -8 19 -8 19 -8
-1 -19 -26 -14 -44 1 -37 29 6 20 53 28 53 9z m50 -1 c0 -8 5 -7 16 2 13 10
17 10 24 0 5 -9 10 -10 14 -2 13 20 26 11 26 -17 0 -24 -4 -28 -30 -27 -16 0
-30 4 -30 10 0 5 -5 3 -10 -5 -6 -9 -10 -11 -10 -3 0 7 -7 10 -15 7 -11 -5
-15 1 -15 20 0 16 6 26 15 26 8 0 15 -5 15 -11z m400 0 c0 -5 5 -7 11 -3 6 3
15 0 20 -7 7 -11 9 -10 9 4 0 19 5 20 35 8 11 -5 32 -5 47 0 32 9 54 -11 43
-38 -7 -17 -8 -16 -15 2 -6 13 -9 15 -9 5 -1 -12 -17 -15 -81 -15 l-80 0 0 28
c0 15 5 27 10 27 6 0 10 -5 10 -11z m-4044 -14 c17 -13 17 -14 2 -15 -10 0
-18 -4 -18 -10 0 -5 7 -7 16 -3 12 4 15 2 12 -8 -8 -23 -39 -23 -45 0 -6 24
-23 29 -23 7 0 -16 -18 -31 -27 -22 -9 9 27 57 37 51 6 -4 10 -1 10 4 0 15 13
14 36 -4z m-251 -24 c-3 -6 -11 -8 -17 -5 -7 5 -8 2 -4 -5 5 -7 14 -10 22 -7
8 3 14 1 14 -4 0 -14 -17 -21 -34 -14 -19 7 -21 50 -3 57 16 6 31 -8 22 -22z
m63 17 c21 -21 14 -48 -12 -48 -28 0 -37 17 -24 43 10 20 20 21 36 5z m84 -3
c11 -15 10 -45 -2 -45 -5 0 -10 10 -11 23 -1 21 -1 21 -9 -3 -5 -17 -8 -19 -9
-7 -1 25 -19 21 -24 -5 -3 -18 -5 -16 -6 8 0 17 1 33 4 36 9 8 50 3 57 -7z
m226 -23 c2 -12 -1 -22 -7 -22 -6 0 -12 10 -12 23 l-2 22 -4 -22 c-2 -13 -9
-23 -14 -23 -5 0 -9 10 -10 23 -1 21 -1 21 -8 -3 -5 -17 -9 -21 -14 -13 -5 7
-3 21 2 32 15 27 65 14 69 -17z m52 11 c0 -10 -6 -13 -17 -9 -15 5 -15 4 1 -9
17 -13 17 -15 4 -15 -22 0 -31 15 -23 40 7 22 35 16 35 -7z m75 17 c5 -8 11
-7 21 1 11 9 17 9 28 0 8 -7 17 -8 20 -3 2 4 20 8 38 8 30 -1 33 -4 36 -36 4
-37 -12 -33 -21 5 -4 15 -5 14 -6 -7 -1 -22 -5 -26 -22 -23 -12 3 -24 7 -27 9
-2 3 -13 1 -23 -4 -12 -7 -20 -7 -24 0 -4 7 -12 7 -25 0 -15 -8 -21 -6 -30 11
-17 30 17 67 35 39z m-552 -11 c-6 -6 -9 -18 -6 -25 3 -8 0 -14 -6 -14 -6 0
-11 11 -11 25 0 17 6 25 17 25 13 0 14 -3 6 -11z m502 -29 c3 -5 1 -10 -4 -10
-6 0 -11 5 -11 10 0 6 2 10 4 10 3 0 8 -4 11 -10z"/>
<path d="M3681 134 c0 -11 3 -14 6 -6 3 7 2 16 -1 19 -3 4 -6 -2 -5 -13z"/>
<path d="M3787 133 c3 -7 6 -13 8 -13 1 0 7 6 13 13 8 10 6 13 -7 13 -11 0
-17 -6 -14 -13z"/>
<path d="M3851 134 c0 -11 3 -14 6 -6 3 7 2 16 -1 19 -3 4 -6 -2 -5 -13z"/>
<path d="M75 110 c-3 -5 -1 -10 4 -10 6 0 11 5 11 10 0 6 -2 10 -4 10 -3 0 -8
-4 -11 -10z"/>
<path d="M3520 135 c0 -8 5 -15 10 -15 6 0 10 7 10 15 0 8 -4 15 -10 15 -5 0
-10 -7 -10 -15z"/>
<path d="M235 100 c3 -5 8 -10 11 -10 2 0 4 5 4 10 0 6 -5 10 -11 10 -5 0 -7
-4 -4 -10z"/>
<path d="M670 110 c0 -13 18 -22 24 -11 3 5 -1 11 -9 15 -8 3 -15 1 -15 -4z"/>
<path d="M725 110 c-3 -5 -1 -10 4 -10 6 0 11 5 11 10 0 6 -2 10 -4 10 -3 0
-8 -4 -11 -10z"/>
<path d="M782 100 c0 -14 2 -19 5 -12 2 6 2 18 0 25 -3 6 -5 1 -5 -13z"/>
</g>
</svg>
